<?xml version="1.0" encoding="UTF-8" standalone="no"?>
<!DOCTYPE svg PUBLIC "-//W3C//DTD SVG 1.1//EN"
 "http://www.w3.org/Graphics/SVG/1.1/DTD/svg11.dtd">
<!-- Generated by graphviz version 12.1.2 (20240928.0832)
 -->
<!-- Title: books Pages: 1 -->
<svg width="931pt" height="725pt"
 viewBox="0.00 0.00 930.89 725.20" xmlns="http://www.w3.org/2000/svg" xmlns:xlink="http://www.w3.org/1999/xlink">
<g id="graph0" class="graph" transform="scale(1 1) rotate(0) translate(4 721.2)">
<title>books</title>
<polygon fill="white" stroke="none" points="-4,4 -4,-721.2 926.89,-721.2 926.89,4 -4,4"/>
<!-- books -->
<g id="node1" class="node">
<title>books</title>
<polygon fill="#efefef" stroke="none" points="376.7,-635.4 376.7,-671 558.19,-671 558.19,-635.4 376.7,-635.4"/>
<polygon fill="none" stroke="black" points="376.7,-635.4 376.7,-671 558.19,-671 558.19,-635.4 376.7,-635.4"/>
<text text-anchor="start" x="383.7" y="-648.8" font-family="Arial Bold" font-size="18.00">books</text>
<text text-anchor="start" x="426.7" y="-648.8" font-family="Arial" font-size="14.00">    </text>
<text text-anchor="start" x="457.82" y="-648.8" font-family="Arial" font-size="14.00" fill="#666666">[BASE TABLE]</text>
<polygon fill="none" stroke="black" points="376.7,-604.6 376.7,-635.4 558.19,-635.4 558.19,-604.6 376.7,-604.6"/>
<text text-anchor="start" x="383.7" y="-616.8" font-family="Arial" font-size="14.00">id </text>
<text text-anchor="start" x="398.48" y="-616.8" font-family="Arial" font-size="14.00" fill="#666666">[int]</text>
<polygon fill="none" stroke="black" points="376.7,-573.8 376.7,-604.6 558.19,-604.6 558.19,-573.8 376.7,-573.8"/>
<text text-anchor="start" x="383.7" y="-586" font-family="Arial" font-size="14.00">isbn </text>
<text text-anchor="start" x="413.27" y="-586" font-family="Arial" font-size="14.00" fill="#666666">[varchar(13)]</text>
<polygon fill="none" stroke="black" points="376.7,-543 376.7,-573.8 558.19,-573.8 558.19,-543 376.7,-543"/>
<text text-anchor="start" x="383.7" y="-555.2" font-family="Arial" font-size="14.00">title </text>
<text text-anchor="start" x="409.37" y="-555.2" font-family="Arial" font-size="14.00" fill="#666666">[varchar(512)]</text>
<polygon fill="none" stroke="black" points="376.7,-512.2 376.7,-543 558.19,-543 558.19,-512.2 376.7,-512.2"/>
<text text-anchor="start" x="383.7" y="-524.4" font-family="Arial" font-size="14.00">price </text>
<text text-anchor="start" x="417.93" y="-524.4" font-family="Arial" font-size="14.00" fill="#666666">[int]</text>
<polygon fill="none" stroke="black" points="376.7,-481.4 376.7,-512.2 558.19,-512.2 558.19,-481.4 376.7,-481.4"/>
<text text-anchor="start" x="383.7" y="-493.6" font-family="Arial" font-size="14.00">status </text>
<text text-anchor="start" x="424.94" y="-493.6" font-family="Arial" font-size="14.00" fill="#666666">[varchar(24)]</text>
<polygon fill="none" stroke="black" points="376.7,-450.6 376.7,-481.4 558.19,-481.4 558.19,-450.6 376.7,-450.6"/>
<text text-anchor="start" x="383.7" y="-462.8" font-family="Arial" font-size="14.00">published_at </text>
<text text-anchor="start" x="466.99" y="-462.8" font-family="Arial" font-size="14.00" fill="#666666">[datetime]</text>
<polygon fill="none" stroke="black" points="376.7,-419.8 376.7,-450.6 558.19,-450.6 558.19,-419.8 376.7,-419.8"/>
<text text-anchor="start" x="383.7" y="-432" font-family="Arial" font-size="14.00">author_id </text>
<text text-anchor="start" x="445.97" y="-432" font-family="Arial" font-size="14.00" fill="#666666">[int]</text>
<polygon fill="none" stroke="black" points="376.7,-389 376.7,-419.8 558.19,-419.8 558.19,-389 376.7,-389"/>
<text text-anchor="start" x="383.7" y="-401.2" font-family="Arial" font-size="14.00">publisher_id </text>
<text text-anchor="start" x="463.08" y="-401.2" font-family="Arial" font-size="14.00" fill="#666666">[int]</text>
<polygon fill="none" stroke="black" points="376.7,-358.2 376.7,-389 558.19,-389 558.19,-358.2 376.7,-358.2"/>
<text text-anchor="start" x="383.7" y="-370.4" font-family="Arial" font-size="14.00">created_at </text>
<text text-anchor="start" x="453.75" y="-370.4" font-family="Arial" font-size="14.00" fill="#666666">[datetime]</text>
<polygon fill="none" stroke="black" points="376.7,-327.4 376.7,-358.2 558.19,-358.2 558.19,-327.4 376.7,-327.4"/>
<text text-anchor="start" x="383.7" y="-339.6" font-family="Arial" font-size="14.00">updated_at </text>
<text text-anchor="start" x="457.66" y="-339.6" font-family="Arial" font-size="14.00" fill="#666666">[datetime]</text>
<polygon fill="none" stroke="black" stroke-width="3" points="375.2,-325.9 375.2,-672.5 559.69,-672.5 559.69,-325.9 375.2,-325.9"/>
</g>
<!-- book_status -->
<g id="node2" class="node">
<title>book_status</title>
<polygon fill="#efefef" stroke="none" points="43.2,-166.4 43.2,-202 267.69,-202 267.69,-166.4 43.2,-166.4"/>
<polygon fill="none" stroke="black" points="43.2,-166.4 43.2,-202 267.69,-202 267.69,-166.4 43.2,-166.4"/>
<text text-anchor="start" x="50.2" y="-179.8" font-family="Arial Bold" font-size="18.00">book_status</text>
<text text-anchor="start" x="136.2" y="-179.8" font-family="Arial" font-size="14.00">    </text>
<text text-anchor="start" x="167.32" y="-179.8" font-family="Arial" font-size="14.00" fill="#666666">[BASE TABLE]</text>
<polygon fill="none" stroke="black" points="43.2,-135.6 43.2,-166.4 267.69,-166.4 267.69,-135.6 43.2,-135.6"/>
<text text-anchor="start" x="50.2" y="-147.8" font-family="Arial" font-size="14.00">value </text>
<text text-anchor="start" x="87.56" y="-147.8" font-family="Arial" font-size="14.00" fill="#666666">[varchar(48)]</text>
<polygon fill="none" stroke="black" points="43.2,-104.8 43.2,-135.6 267.69,-135.6 267.69,-104.8 43.2,-104.8"/>
<text text-anchor="start" x="50.2" y="-117" font-family="Arial" font-size="14.00">description </text>
<text text-anchor="start" x="121.79" y="-117" font-family="Arial" font-size="14.00" fill="#666666">[varchar(96)]</text>
<polygon fill="none" stroke="black" points="43.2,-74 43.2,-104.8 267.69,-104.8 267.69,-74 43.2,-74"/>
<text text-anchor="start" x="50.2" y="-86.2" font-family="Arial" font-size="14.00">created_at </text>
<text text-anchor="start" x="120.25" y="-86.2" font-family="Arial" font-size="14.00" fill="#666666">[datetime]</text>
<polygon fill="none" stroke="black" points="43.2,-43.2 43.2,-74 267.69,-74 267.69,-43.2 43.2,-43.2"/>
<text text-anchor="start" x="50.2" y="-55.4" font-family="Arial" font-size="14.00">updated_at </text>
<text text-anchor="start" x="124.16" y="-55.4" font-family="Arial" font-size="14.00" fill="#666666">[datetime]</text>
</g>
<!-- books&#45;&gt;book_status -->
<g id="edge1" class="edge">
<title>books:status&#45;&gt;book_status:value</title>
<path fill="none" stroke="black" d="M365.65,-494.77C299.83,-466.43 345.52,-151 268.69,-151"/>
<polygon fill="black" stroke="black" points="365.57,-494.75 374.48,-501.14 370.8,-495.81 375.04,-496.67 375.04,-496.67 375.04,-496.67 370.8,-495.81 376.26,-492.32 365.57,-494.75"/>
<text text-anchor="start" x="103.06" y="-506.8" font-family="Arial" font-size="10.00">FOREIGN KEY (status) REFERENCES book_status (value)</text>
</g>
<!-- authors -->
<g id="node3" class="node">
<title>authors</title>
<polygon fill="#efefef" stroke="none" points="371.71,-166.4 371.71,-202 563.18,-202 563.18,-166.4 371.71,-166.4"/>
<polygon fill="none" stroke="black" points="371.71,-166.4 371.71,-202 563.18,-202 563.18,-166.4 371.71,-166.4"/>
<text text-anchor="start" x="378.71" y="-179.8" font-family="Arial Bold" font-size="18.00">authors</text>
<text text-anchor="start" x="431.7" y="-179.8" font-family="Arial" font-size="14.00">    </text>
<text text-anchor="start" x="462.81" y="-179.8" font-family="Arial" font-size="14.00" fill="#666666">[BASE TABLE]</text>
<polygon fill="none" stroke="black" points="371.71,-135.6 371.71,-166.4 563.18,-166.4 563.18,-135.6 371.71,-135.6"/>
<text text-anchor="start" x="378.71" y="-147.8" font-family="Arial" font-size="14.00">id </text>
<text text-anchor="start" x="393.49" y="-147.8" font-family="Arial" font-size="14.00" fill="#666666">[int]</text>
<polygon fill="none" stroke="black" points="371.71,-104.8 371.71,-135.6 563.18,-135.6 563.18,-104.8 371.71,-104.8"/>
<text text-anchor="start" x="378.71" y="-117" font-family="Arial" font-size="14.00">author_name </text>
<text text-anchor="start" x="465.1" y="-117" font-family="Arial" font-size="14.00" fill="#666666">[varchar(128)]</text>
<polygon fill="none" stroke="black" points="371.71,-74 371.71,-104.8 563.18,-104.8 563.18,-74 371.71,-74"/>
<text text-anchor="start" x="378.71" y="-86.2" font-family="Arial" font-size="14.00">created_at </text>
<text text-anchor="start" x="448.75" y="-86.2" font-family="Arial" font-size="14.00" fill="#666666">[datetime]</text>
<polygon fill="none" stroke="black" points="371.71,-43.2 371.71,-74 563.18,-74 563.18,-43.2 371.71,-43.2"/>
<text text-anchor="start" x="378.71" y="-55.4" font-family="Arial" font-size="14.00">updated_at </text>
<text text-anchor="start" x="452.66" y="-55.4" font-family="Arial" font-size="14.00" fill="#666666">[datetime]</text>
</g>
<!-- books&#45;&gt;authors -->
<g id="edge2" class="edge">
<title>books:author_id&#45;&gt;authors:id</title>
<path fill="none" stroke="black" d="M569.03,-432.74C622.7,-404.97 623.9,-151 564.18,-151"/>
<polygon fill="black" stroke="black" points="569.22,-432.7 558.43,-430.75 564.04,-433.99 559.84,-435.04 559.84,-435.04 559.84,-435.04 564.04,-433.99 560.61,-439.48 569.22,-432.7"/>
<text text-anchor="start" x="566.19" y="-445.2" font-family="Arial" font-size="10.00">FOREIGN KEY (author_id) REFERENCES authors (id)</text>
</g>
<!-- publishers -->
<g id="node4" class="node">
<title>publishers</title>
<polygon fill="#efefef" stroke="none" points="667.2,-166.4 667.2,-202 879.69,-202 879.69,-166.4 667.2,-166.4"/>
<polygon fill="none" stroke="black" points="667.2,-166.4 667.2,-202 879.69,-202 879.69,-166.4 667.2,-166.4"/>
<text text-anchor="start" x="674.2" y="-179.8" font-family="Arial Bold" font-size="18.00">publishers</text>
<text text-anchor="start" x="748.2" y="-179.8" font-family="Arial" font-size="14.00">    </text>
<text text-anchor="start" x="779.32" y="-179.8" font-family="Arial" font-size="14.00" fill="#666666">[BASE TABLE]</text>
<polygon fill="none" stroke="black" points="667.2,-135.6 667.2,-166.4 879.69,-166.4 879.69,-135.6 667.2,-135.6"/>
<text text-anchor="start" x="674.2" y="-147.8" font-family="Arial" font-size="14.00">id </text>
<text text-anchor="start" x="688.99" y="-147.8" font-family="Arial" font-size="14.00" fill="#666666">[int]</text>
<polygon fill="none" stroke="black" points="667.2,-104.8 667.2,-135.6 879.69,-135.6 879.69,-104.8 667.2,-104.8"/>
<text text-anchor="start" x="674.2" y="-117" font-family="Arial" font-size="14.00">publisher_name </text>
<text text-anchor="start" x="777.71" y="-117" font-family="Arial" font-size="14.00" fill="#666666">[varchar(128)]</text>
<polygon fill="none" stroke="black" points="667.2,-74 667.2,-104.8 879.69,-104.8 879.69,-74 667.2,-74"/>
<text text-anchor="start" x="674.2" y="-86.2" font-family="Arial" font-size="14.00">created_at </text>
<text text-anchor="start" x="744.25" y="-86.2" font-family="Arial" font-size="14.00" fill="#666666">[datetime]</text>
<polygon fill="none" stroke="black" points="667.2,-43.2 667.2,-74 879.69,-74 879.69,-43.2 667.2,-43.2"/>
<text text-anchor="start" x="674.2" y="-55.4" font-family="Arial" font-size="14.00">updated_at </text>
<text text-anchor="start" x="748.16" y="-55.4" font-family="Arial" font-size="14.00" fill="#666666">[datetime]</text>
</g>
<!-- books&#45;&gt;publishers -->
<g id="edge3" class="edge">
<title>books:publisher_id&#45;&gt;publishers:id</title>
<path fill="none" stroke="black" d="M569.18,-401.89C618.79,-375.57 608.66,-151 666.2,-151"/>
<polygon fill="black" stroke="black" points="569.22,-401.88 558.42,-399.95 564.04,-403.18 559.84,-404.24 559.84,-404.24 559.84,-404.24 564.04,-403.18 560.61,-408.68 569.22,-401.88"/>
<text text-anchor="start" x="566.19" y="-414.4" font-family="Arial" font-size="10.00">FOREIGN KEY (publisher_id) REFERENCES publishers (id)</text>
</g>
</g>
</svg>
