<?xml version="1.0" encoding="UTF-8" standalone="no"?>
<!DOCTYPE svg PUBLIC "-//W3C//DTD SVG 1.1//EN"
 "http://www.w3.org/Graphics/SVG/1.1/DTD/svg11.dtd">
<!-- Generated by graphviz version 12.1.2 (20240928.0832)
 -->
<!-- Title: book_status Pages: 1 -->
<svg width="538pt" height="725pt"
 viewBox="0.00 0.00 537.83 725.20" xmlns="http://www.w3.org/2000/svg" xmlns:xlink="http://www.w3.org/1999/xlink">
<g id="graph0" class="graph" transform="scale(1 1) rotate(0) translate(4 721.2)">
<title>book_status</title>
<polygon fill="white" stroke="none" points="-4,4 -4,-721.2 533.83,-721.2 533.83,4 -4,4"/>
<!-- book_status -->
<g id="node1" class="node">
<title>book_status</title>
<polygon fill="#efefef" stroke="none" points="46.2,-169.4 46.2,-205 270.69,-205 270.69,-169.4 46.2,-169.4"/>
<polygon fill="none" stroke="black" points="46.2,-169.4 46.2,-205 270.69,-205 270.69,-169.4 46.2,-169.4"/>
<text text-anchor="start" x="53.2" y="-182.8" font-family="Arial Bold" font-size="18.00">book_status</text>
<text text-anchor="start" x="139.2" y="-182.8" font-family="Arial" font-size="14.00">    </text>
<text text-anchor="start" x="170.32" y="-182.8" font-family="Arial" font-size="14.00" fill="#666666">[BASE TABLE]</text>
<polygon fill="none" stroke="black" points="46.2,-138.6 46.2,-169.4 270.69,-169.4 270.69,-138.6 46.2,-138.6"/>
<text text-anchor="start" x="53.2" y="-150.8" font-family="Arial" font-size="14.00">value </text>
<text text-anchor="start" x="90.56" y="-150.8" font-family="Arial" font-size="14.00" fill="#666666">[varchar(48)]</text>
<polygon fill="none" stroke="black" points="46.2,-107.8 46.2,-138.6 270.69,-138.6 270.69,-107.8 46.2,-107.8"/>
<text text-anchor="start" x="53.2" y="-120" font-family="Arial" font-size="14.00">description </text>
<text text-anchor="start" x="124.79" y="-120" font-family="Arial" font-size="14.00" fill="#666666">[varchar(96)]</text>
<polygon fill="none" stroke="black" points="46.2,-77 46.2,-107.8 270.69,-107.8 270.69,-77 46.2,-77"/>
<text text-anchor="start" x="53.2" y="-89.2" font-family="Arial" font-size="14.00">created_at </text>
<text text-anchor="start" x="123.25" y="-89.2" font-family="Arial" font-size="14.00" fill="#666666">[datetime]</text>
<polygon fill="none" stroke="black" points="46.2,-46.2 46.2,-77 270.69,-77 270.69,-46.2 46.2,-46.2"/>
<text text-anchor="start" x="53.2" y="-58.4" font-family="Arial" font-size="14.00">updated_at </text>
<text text-anchor="start" x="127.16" y="-58.4" font-family="Arial" font-size="14.00" fill="#666666">[datetime]</text>
<polygon fill="none" stroke="black" stroke-width="3" points="44.7,-44.7 44.7,-206.5 272.19,-206.5 272.19,-44.7 44.7,-44.7"/>
</g>
<!-- books -->
<g id="node2" class="node">
<title>books</title>
<polygon fill="#efefef" stroke="none" points="67.7,-638.4 67.7,-674 249.19,-674 249.19,-638.4 67.7,-638.4"/>
<polygon fill="none" stroke="black" points="67.7,-638.4 67.7,-674 249.19,-674 249.19,-638.4 67.7,-638.4"/>
<text text-anchor="start" x="74.7" y="-651.8" font-family="Arial Bold" font-size="18.00">books</text>
<text text-anchor="start" x="117.7" y="-651.8" font-family="Arial" font-size="14.00">    </text>
<text text-anchor="start" x="148.82" y="-651.8" font-family="Arial" font-size="14.00" fill="#666666">[BASE TABLE]</text>
<polygon fill="none" stroke="black" points="67.7,-607.6 67.7,-638.4 249.19,-638.4 249.19,-607.6 67.7,-607.6"/>
<text text-anchor="start" x="74.7" y="-619.8" font-family="Arial" font-size="14.00">id </text>
<text text-anchor="start" x="89.48" y="-619.8" font-family="Arial" font-size="14.00" fill="#666666">[int]</text>
<polygon fill="none" stroke="black" points="67.7,-576.8 67.7,-607.6 249.19,-607.6 249.19,-576.8 67.7,-576.8"/>
<text text-anchor="start" x="74.7" y="-589" font-family="Arial" font-size="14.00">isbn </text>
<text text-anchor="start" x="104.27" y="-589" font-family="Arial" font-size="14.00" fill="#666666">[varchar(13)]</text>
<polygon fill="none" stroke="black" points="67.7,-546 67.7,-576.8 249.19,-576.8 249.19,-546 67.7,-546"/>
<text text-anchor="start" x="74.7" y="-558.2" font-family="Arial" font-size="14.00">title </text>
<text text-anchor="start" x="100.37" y="-558.2" font-family="Arial" font-size="14.00" fill="#666666">[varchar(512)]</text>
<polygon fill="none" stroke="black" points="67.7,-515.2 67.7,-546 249.19,-546 249.19,-515.2 67.7,-515.2"/>
<text text-anchor="start" x="74.7" y="-527.4" font-family="Arial" font-size="14.00">price </text>
<text text-anchor="start" x="108.93" y="-527.4" font-family="Arial" font-size="14.00" fill="#666666">[int]</text>
<polygon fill="none" stroke="black" points="67.7,-484.4 67.7,-515.2 249.19,-515.2 249.19,-484.4 67.7,-484.4"/>
<text text-anchor="start" x="74.7" y="-496.6" font-family="Arial" font-size="14.00">status </text>
<text text-anchor="start" x="115.94" y="-496.6" font-family="Arial" font-size="14.00" fill="#666666">[varchar(24)]</text>
<polygon fill="none" stroke="black" points="67.7,-453.6 67.7,-484.4 249.19,-484.4 249.19,-453.6 67.7,-453.6"/>
<text text-anchor="start" x="74.7" y="-465.8" font-family="Arial" font-size="14.00">published_at </text>
<text text-anchor="start" x="157.99" y="-465.8" font-family="Arial" font-size="14.00" fill="#666666">[datetime]</text>
<polygon fill="none" stroke="black" points="67.7,-422.8 67.7,-453.6 249.19,-453.6 249.19,-422.8 67.7,-422.8"/>
<text text-anchor="start" x="74.7" y="-435" font-family="Arial" font-size="14.00">author_id </text>
<text text-anchor="start" x="136.97" y="-435" font-family="Arial" font-size="14.00" fill="#666666">[int]</text>
<polygon fill="none" stroke="black" points="67.7,-392 67.7,-422.8 249.19,-422.8 249.19,-392 67.7,-392"/>
<text text-anchor="start" x="74.7" y="-404.2" font-family="Arial" font-size="14.00">publisher_id </text>
<text text-anchor="start" x="154.08" y="-404.2" font-family="Arial" font-size="14.00" fill="#666666">[int]</text>
<polygon fill="none" stroke="black" points="67.7,-361.2 67.7,-392 249.19,-392 249.19,-361.2 67.7,-361.2"/>
<text text-anchor="start" x="74.7" y="-373.4" font-family="Arial" font-size="14.00">created_at </text>
<text text-anchor="start" x="144.75" y="-373.4" font-family="Arial" font-size="14.00" fill="#666666">[datetime]</text>
<polygon fill="none" stroke="black" points="67.7,-330.4 67.7,-361.2 249.19,-361.2 249.19,-330.4 67.7,-330.4"/>
<text text-anchor="start" x="74.7" y="-342.6" font-family="Arial" font-size="14.00">updated_at </text>
<text text-anchor="start" x="148.66" y="-342.6" font-family="Arial" font-size="14.00" fill="#666666">[datetime]</text>
</g>
<!-- books&#45;&gt;book_status -->
<g id="edge1" class="edge">
<title>books:status&#45;&gt;book_status:value</title>
<path fill="none" stroke="black" d="M260.23,-497.77C328.92,-469.43 345.22,-154 271.69,-154"/>
<polygon fill="black" stroke="black" points="260.32,-497.75 249.63,-495.32 255.09,-498.81 250.85,-499.67 250.85,-499.67 250.85,-499.67 255.09,-498.81 251.41,-504.14 260.32,-497.75"/>
<text text-anchor="start" x="257.19" y="-509.8" font-family="Arial" font-size="10.00">FOREIGN KEY (status) REFERENCES book_status (value)</text>
</g>
</g>
</svg>
