<?xml version="1.0" encoding="UTF-8" standalone="no"?>
<!DOCTYPE svg PUBLIC "-//W3C//DTD SVG 1.1//EN"
 "http://www.w3.org/Graphics/SVG/1.1/DTD/svg11.dtd">
<!-- Generated by graphviz version 12.1.2 (20240928.0832)
 -->
<!-- Title: publishers Pages: 1 -->
<svg width="535pt" height="725pt"
 viewBox="0.00 0.00 534.60 725.20" xmlns="http://www.w3.org/2000/svg" xmlns:xlink="http://www.w3.org/1999/xlink">
<g id="graph0" class="graph" transform="scale(1 1) rotate(0) translate(4 721.2)">
<title>publishers</title>
<polygon fill="white" stroke="none" points="-4,4 -4,-721.2 530.6,-721.2 530.6,4 -4,4"/>
<!-- publishers -->
<g id="node1" class="node">
<title>publishers</title>
<polygon fill="#efefef" stroke="none" points="46.2,-169.4 46.2,-205 258.68,-205 258.68,-169.4 46.2,-169.4"/>
<polygon fill="none" stroke="black" points="46.2,-169.4 46.2,-205 258.68,-205 258.68,-169.4 46.2,-169.4"/>
<text text-anchor="start" x="53.2" y="-182.8" font-family="Arial Bold" font-size="18.00">publishers</text>
<text text-anchor="start" x="127.2" y="-182.8" font-family="Arial" font-size="14.00">    </text>
<text text-anchor="start" x="158.31" y="-182.8" font-family="Arial" font-size="14.00" fill="#666666">[BASE TABLE]</text>
<polygon fill="none" stroke="black" points="46.2,-138.6 46.2,-169.4 258.68,-169.4 258.68,-138.6 46.2,-138.6"/>
<text text-anchor="start" x="53.2" y="-150.8" font-family="Arial" font-size="14.00">id </text>
<text text-anchor="start" x="67.99" y="-150.8" font-family="Arial" font-size="14.00" fill="#666666">[int]</text>
<polygon fill="none" stroke="black" points="46.2,-107.8 46.2,-138.6 258.68,-138.6 258.68,-107.8 46.2,-107.8"/>
<text text-anchor="start" x="53.2" y="-120" font-family="Arial" font-size="14.00">publisher_name </text>
<text text-anchor="start" x="156.71" y="-120" font-family="Arial" font-size="14.00" fill="#666666">[varchar(128)]</text>
<polygon fill="none" stroke="black" points="46.2,-77 46.2,-107.8 258.68,-107.8 258.68,-77 46.2,-77"/>
<text text-anchor="start" x="53.2" y="-89.2" font-family="Arial" font-size="14.00">created_at </text>
<text text-anchor="start" x="123.25" y="-89.2" font-family="Arial" font-size="14.00" fill="#666666">[datetime]</text>
<polygon fill="none" stroke="black" points="46.2,-46.2 46.2,-77 258.68,-77 258.68,-46.2 46.2,-46.2"/>
<text text-anchor="start" x="53.2" y="-58.4" font-family="Arial" font-size="14.00">updated_at </text>
<text text-anchor="start" x="127.16" y="-58.4" font-family="Arial" font-size="14.00" fill="#666666">[datetime]</text>
<polygon fill="none" stroke="black" stroke-width="3" points="44.7,-44.7 44.7,-206.5 260.18,-206.5 260.18,-44.7 44.7,-44.7"/>
</g>
<!-- books -->
<g id="node2" class="node">
<title>books</title>
<polygon fill="#efefef" stroke="none" points="61.7,-638.4 61.7,-674 243.19,-674 243.19,-638.4 61.7,-638.4"/>
<polygon fill="none" stroke="black" points="61.7,-638.4 61.7,-674 243.19,-674 243.19,-638.4 61.7,-638.4"/>
<text text-anchor="start" x="68.7" y="-651.8" font-family="Arial Bold" font-size="18.00">books</text>
<text text-anchor="start" x="111.7" y="-651.8" font-family="Arial" font-size="14.00">    </text>
<text text-anchor="start" x="142.82" y="-651.8" font-family="Arial" font-size="14.00" fill="#666666">[BASE TABLE]</text>
<polygon fill="none" stroke="black" points="61.7,-607.6 61.7,-638.4 243.19,-638.4 243.19,-607.6 61.7,-607.6"/>
<text text-anchor="start" x="68.7" y="-619.8" font-family="Arial" font-size="14.00">id </text>
<text text-anchor="start" x="83.48" y="-619.8" font-family="Arial" font-size="14.00" fill="#666666">[int]</text>
<polygon fill="none" stroke="black" points="61.7,-576.8 61.7,-607.6 243.19,-607.6 243.19,-576.8 61.7,-576.8"/>
<text text-anchor="start" x="68.7" y="-589" font-family="Arial" font-size="14.00">isbn </text>
<text text-anchor="start" x="98.27" y="-589" font-family="Arial" font-size="14.00" fill="#666666">[varchar(13)]</text>
<polygon fill="none" stroke="black" points="61.7,-546 61.7,-576.8 243.19,-576.8 243.19,-546 61.7,-546"/>
<text text-anchor="start" x="68.7" y="-558.2" font-family="Arial" font-size="14.00">title </text>
<text text-anchor="start" x="94.37" y="-558.2" font-family="Arial" font-size="14.00" fill="#666666">[varchar(512)]</text>
<polygon fill="none" stroke="black" points="61.7,-515.2 61.7,-546 243.19,-546 243.19,-515.2 61.7,-515.2"/>
<text text-anchor="start" x="68.7" y="-527.4" font-family="Arial" font-size="14.00">price </text>
<text text-anchor="start" x="102.93" y="-527.4" font-family="Arial" font-size="14.00" fill="#666666">[int]</text>
<polygon fill="none" stroke="black" points="61.7,-484.4 61.7,-515.2 243.19,-515.2 243.19,-484.4 61.7,-484.4"/>
<text text-anchor="start" x="68.7" y="-496.6" font-family="Arial" font-size="14.00">status </text>
<text text-anchor="start" x="109.94" y="-496.6" font-family="Arial" font-size="14.00" fill="#666666">[varchar(24)]</text>
<polygon fill="none" stroke="black" points="61.7,-453.6 61.7,-484.4 243.19,-484.4 243.19,-453.6 61.7,-453.6"/>
<text text-anchor="start" x="68.7" y="-465.8" font-family="Arial" font-size="14.00">published_at </text>
<text text-anchor="start" x="151.98" y="-465.8" font-family="Arial" font-size="14.00" fill="#666666">[datetime]</text>
<polygon fill="none" stroke="black" points="61.7,-422.8 61.7,-453.6 243.19,-453.6 243.19,-422.8 61.7,-422.8"/>
<text text-anchor="start" x="68.7" y="-435" font-family="Arial" font-size="14.00">author_id </text>
<text text-anchor="start" x="130.96" y="-435" font-family="Arial" font-size="14.00" fill="#666666">[int]</text>
<polygon fill="none" stroke="black" points="61.7,-392 61.7,-422.8 243.19,-422.8 243.19,-392 61.7,-392"/>
<text text-anchor="start" x="68.7" y="-404.2" font-family="Arial" font-size="14.00">publisher_id </text>
<text text-anchor="start" x="148.08" y="-404.2" font-family="Arial" font-size="14.00" fill="#666666">[int]</text>
<polygon fill="none" stroke="black" points="61.7,-361.2 61.7,-392 243.19,-392 243.19,-361.2 61.7,-361.2"/>
<text text-anchor="start" x="68.7" y="-373.4" font-family="Arial" font-size="14.00">created_at </text>
<text text-anchor="start" x="138.74" y="-373.4" font-family="Arial" font-size="14.00" fill="#666666">[datetime]</text>
<polygon fill="none" stroke="black" points="61.7,-330.4 61.7,-361.2 243.19,-361.2 243.19,-330.4 61.7,-330.4"/>
<text text-anchor="start" x="68.7" y="-342.6" font-family="Arial" font-size="14.00">updated_at </text>
<text text-anchor="start" x="142.65" y="-342.6" font-family="Arial" font-size="14.00" fill="#666666">[datetime]</text>
</g>
<!-- books&#45;&gt;publishers -->
<g id="edge1" class="edge">
<title>books:publisher_id&#45;&gt;publishers:id</title>
<path fill="none" stroke="black" d="M253.98,-404.73C302.22,-377.64 312.68,-154 259.68,-154"/>
<polygon fill="black" stroke="black" points="254.16,-404.68 243.33,-402.97 249.01,-406.08 244.83,-407.22 244.83,-407.22 244.83,-407.22 249.01,-406.08 245.7,-411.65 254.16,-404.68"/>
<text text-anchor="start" x="251.19" y="-417.4" font-family="Arial" font-size="10.00">FOREIGN KEY (publisher_id) REFERENCES publishers (id)</text>
</g>
</g>
</svg>
