<?xml version="1.0" encoding="UTF-8" standalone="no"?>
<!DOCTYPE svg PUBLIC "-//W3C//DTD SVG 1.1//EN"
 "http://www.w3.org/Graphics/SVG/1.1/DTD/svg11.dtd">
<!-- Generated by graphviz version 12.1.2 (20240928.0832)
 -->
<!-- Title: app Pages: 1 -->
<svg width="931pt" height="719pt"
 viewBox="0.00 0.00 931.38 719.20" xmlns="http://www.w3.org/2000/svg" xmlns:xlink="http://www.w3.org/1999/xlink">
<g id="graph0" class="graph" transform="scale(1 1) rotate(0) translate(4 715.2)">
<title>app</title>
<polygon fill="white" stroke="none" points="-4,4 -4,-715.2 927.38,-715.2 927.38,4 -4,4"/>
<!-- authors -->
<g id="node1" class="node">
<title>authors</title>
<polygon fill="#efefef" stroke="none" points="43.2,-166.4 43.2,-202 234.68,-202 234.68,-166.4 43.2,-166.4"/>
<polygon fill="none" stroke="black" points="43.2,-166.4 43.2,-202 234.68,-202 234.68,-166.4 43.2,-166.4"/>
<text text-anchor="start" x="50.2" y="-179.8" font-family="Arial Bold" font-size="18.00">authors</text>
<text text-anchor="start" x="103.19" y="-179.8" font-family="Arial" font-size="14.00">    </text>
<text text-anchor="start" x="134.31" y="-179.8" font-family="Arial" font-size="14.00" fill="#666666">[BASE TABLE]</text>
<polygon fill="none" stroke="black" points="43.2,-135.6 43.2,-166.4 234.68,-166.4 234.68,-135.6 43.2,-135.6"/>
<text text-anchor="start" x="50.2" y="-147.8" font-family="Arial" font-size="14.00">id </text>
<text text-anchor="start" x="64.99" y="-147.8" font-family="Arial" font-size="14.00" fill="#666666">[int]</text>
<polygon fill="none" stroke="black" points="43.2,-104.8 43.2,-135.6 234.68,-135.6 234.68,-104.8 43.2,-104.8"/>
<text text-anchor="start" x="50.2" y="-117" font-family="Arial" font-size="14.00">author_name </text>
<text text-anchor="start" x="136.59" y="-117" font-family="Arial" font-size="14.00" fill="#666666">[varchar(128)]</text>
<polygon fill="none" stroke="black" points="43.2,-74 43.2,-104.8 234.68,-104.8 234.68,-74 43.2,-74"/>
<text text-anchor="start" x="50.2" y="-86.2" font-family="Arial" font-size="14.00">created_at </text>
<text text-anchor="start" x="120.25" y="-86.2" font-family="Arial" font-size="14.00" fill="#666666">[datetime]</text>
<polygon fill="none" stroke="black" points="43.2,-43.2 43.2,-74 234.68,-74 234.68,-43.2 43.2,-43.2"/>
<text text-anchor="start" x="50.2" y="-55.4" font-family="Arial" font-size="14.00">updated_at </text>
<text text-anchor="start" x="124.16" y="-55.4" font-family="Arial" font-size="14.00" fill="#666666">[datetime]</text>
</g>
<!-- book_status -->
<g id="node2" class="node">
<title>book_status</title>
<polygon fill="#efefef" stroke="none" points="338.69,-166.4 338.69,-202 563.18,-202 563.18,-166.4 338.69,-166.4"/>
<polygon fill="none" stroke="black" points="338.69,-166.4 338.69,-202 563.18,-202 563.18,-166.4 338.69,-166.4"/>
<text text-anchor="start" x="345.69" y="-179.8" font-family="Arial Bold" font-size="18.00">book_status</text>
<text text-anchor="start" x="431.7" y="-179.8" font-family="Arial" font-size="14.00">    </text>
<text text-anchor="start" x="462.81" y="-179.8" font-family="Arial" font-size="14.00" fill="#666666">[BASE TABLE]</text>
<polygon fill="none" stroke="black" points="338.69,-135.6 338.69,-166.4 563.18,-166.4 563.18,-135.6 338.69,-135.6"/>
<text text-anchor="start" x="345.69" y="-147.8" font-family="Arial" font-size="14.00">value </text>
<text text-anchor="start" x="383.05" y="-147.8" font-family="Arial" font-size="14.00" fill="#666666">[varchar(48)]</text>
<polygon fill="none" stroke="black" points="338.69,-104.8 338.69,-135.6 563.18,-135.6 563.18,-104.8 338.69,-104.8"/>
<text text-anchor="start" x="345.69" y="-117" font-family="Arial" font-size="14.00">description </text>
<text text-anchor="start" x="417.29" y="-117" font-family="Arial" font-size="14.00" fill="#666666">[varchar(96)]</text>
<polygon fill="none" stroke="black" points="338.69,-74 338.69,-104.8 563.18,-104.8 563.18,-74 338.69,-74"/>
<text text-anchor="start" x="345.69" y="-86.2" font-family="Arial" font-size="14.00">created_at </text>
<text text-anchor="start" x="415.74" y="-86.2" font-family="Arial" font-size="14.00" fill="#666666">[datetime]</text>
<polygon fill="none" stroke="black" points="338.69,-43.2 338.69,-74 563.18,-74 563.18,-43.2 338.69,-43.2"/>
<text text-anchor="start" x="345.69" y="-55.4" font-family="Arial" font-size="14.00">updated_at </text>
<text text-anchor="start" x="419.65" y="-55.4" font-family="Arial" font-size="14.00" fill="#666666">[datetime]</text>
</g>
<!-- books -->
<g id="node3" class="node">
<title>books</title>
<polygon fill="#efefef" stroke="none" points="360.19,-632.4 360.19,-668 541.69,-668 541.69,-632.4 360.19,-632.4"/>
<polygon fill="none" stroke="black" points="360.19,-632.4 360.19,-668 541.69,-668 541.69,-632.4 360.19,-632.4"/>
<text text-anchor="start" x="367.19" y="-645.8" font-family="Arial Bold" font-size="18.00">books</text>
<text text-anchor="start" x="410.2" y="-645.8" font-family="Arial" font-size="14.00">    </text>
<text text-anchor="start" x="441.31" y="-645.8" font-family="Arial" font-size="14.00" fill="#666666">[BASE TABLE]</text>
<polygon fill="none" stroke="black" points="360.19,-601.6 360.19,-632.4 541.69,-632.4 541.69,-601.6 360.19,-601.6"/>
<text text-anchor="start" x="367.19" y="-613.8" font-family="Arial" font-size="14.00">id </text>
<text text-anchor="start" x="381.98" y="-613.8" font-family="Arial" font-size="14.00" fill="#666666">[int]</text>
<polygon fill="none" stroke="black" points="360.19,-570.8 360.19,-601.6 541.69,-601.6 541.69,-570.8 360.19,-570.8"/>
<text text-anchor="start" x="367.19" y="-583" font-family="Arial" font-size="14.00">isbn </text>
<text text-anchor="start" x="396.76" y="-583" font-family="Arial" font-size="14.00" fill="#666666">[varchar(13)]</text>
<polygon fill="none" stroke="black" points="360.19,-540 360.19,-570.8 541.69,-570.8 541.69,-540 360.19,-540"/>
<text text-anchor="start" x="367.19" y="-552.2" font-family="Arial" font-size="14.00">title </text>
<text text-anchor="start" x="392.87" y="-552.2" font-family="Arial" font-size="14.00" fill="#666666">[varchar(512)]</text>
<polygon fill="none" stroke="black" points="360.19,-509.2 360.19,-540 541.69,-540 541.69,-509.2 360.19,-509.2"/>
<text text-anchor="start" x="367.19" y="-521.4" font-family="Arial" font-size="14.00">price </text>
<text text-anchor="start" x="401.43" y="-521.4" font-family="Arial" font-size="14.00" fill="#666666">[int]</text>
<polygon fill="none" stroke="black" points="360.19,-478.4 360.19,-509.2 541.69,-509.2 541.69,-478.4 360.19,-478.4"/>
<text text-anchor="start" x="367.19" y="-490.6" font-family="Arial" font-size="14.00">status </text>
<text text-anchor="start" x="408.43" y="-490.6" font-family="Arial" font-size="14.00" fill="#666666">[varchar(24)]</text>
<polygon fill="none" stroke="black" points="360.19,-447.6 360.19,-478.4 541.69,-478.4 541.69,-447.6 360.19,-447.6"/>
<text text-anchor="start" x="367.19" y="-459.8" font-family="Arial" font-size="14.00">published_at </text>
<text text-anchor="start" x="450.48" y="-459.8" font-family="Arial" font-size="14.00" fill="#666666">[datetime]</text>
<polygon fill="none" stroke="black" points="360.19,-416.8 360.19,-447.6 541.69,-447.6 541.69,-416.8 360.19,-416.8"/>
<text text-anchor="start" x="367.19" y="-429" font-family="Arial" font-size="14.00">author_id </text>
<text text-anchor="start" x="429.46" y="-429" font-family="Arial" font-size="14.00" fill="#666666">[int]</text>
<polygon fill="none" stroke="black" points="360.19,-386 360.19,-416.8 541.69,-416.8 541.69,-386 360.19,-386"/>
<text text-anchor="start" x="367.19" y="-398.2" font-family="Arial" font-size="14.00">publisher_id </text>
<text text-anchor="start" x="446.58" y="-398.2" font-family="Arial" font-size="14.00" fill="#666666">[int]</text>
<polygon fill="none" stroke="black" points="360.19,-355.2 360.19,-386 541.69,-386 541.69,-355.2 360.19,-355.2"/>
<text text-anchor="start" x="367.19" y="-367.4" font-family="Arial" font-size="14.00">created_at </text>
<text text-anchor="start" x="437.24" y="-367.4" font-family="Arial" font-size="14.00" fill="#666666">[datetime]</text>
<polygon fill="none" stroke="black" points="360.19,-324.4 360.19,-355.2 541.69,-355.2 541.69,-324.4 360.19,-324.4"/>
<text text-anchor="start" x="367.19" y="-336.6" font-family="Arial" font-size="14.00">updated_at </text>
<text text-anchor="start" x="441.15" y="-336.6" font-family="Arial" font-size="14.00" fill="#666666">[datetime]</text>
</g>
<!-- books&#45;&gt;authors -->
<g id="edge2" class="edge">
<title>books:author_id&#45;&gt;authors:id</title>
<path fill="none" stroke="black" d="M350.39,-426.83C316.14,-387.96 267,-151 235.68,-151"/>
<polygon fill="black" stroke="black" points="350.37,-426.82 356.56,-435.87 354.92,-429.6 358.62,-431.85 358.62,-431.85 358.62,-431.85 354.92,-429.6 361.25,-428.18 350.37,-426.82"/>
<text text-anchor="start" x="108.23" y="-442.2" font-family="Arial" font-size="10.00">FOREIGN KEY (author_id) REFERENCES authors (id)</text>
</g>
<!-- books&#45;&gt;book_status -->
<g id="edge1" class="edge">
<title>books:status&#45;&gt;book_status:value</title>
<path fill="none" stroke="black" d="M552.64,-491.79C620.75,-463.69 637.08,-151 564.18,-151"/>
<polygon fill="black" stroke="black" points="552.82,-491.75 542.12,-489.32 547.59,-492.81 543.34,-493.67 543.34,-493.67 543.34,-493.67 547.59,-492.81 543.91,-498.14 552.82,-491.75"/>
<text text-anchor="start" x="549.69" y="-503.8" font-family="Arial" font-size="10.00">FOREIGN KEY (status) REFERENCES book_status (value)</text>
</g>
<!-- publishers -->
<g id="node4" class="node">
<title>publishers</title>
<polygon fill="#efefef" stroke="none" points="667.7,-166.4 667.7,-202 880.18,-202 880.18,-166.4 667.7,-166.4"/>
<polygon fill="none" stroke="black" points="667.7,-166.4 667.7,-202 880.18,-202 880.18,-166.4 667.7,-166.4"/>
<text text-anchor="start" x="674.7" y="-179.8" font-family="Arial Bold" font-size="18.00">publishers</text>
<text text-anchor="start" x="748.69" y="-179.8" font-family="Arial" font-size="14.00">    </text>
<text text-anchor="start" x="779.81" y="-179.8" font-family="Arial" font-size="14.00" fill="#666666">[BASE TABLE]</text>
<polygon fill="none" stroke="black" points="667.7,-135.6 667.7,-166.4 880.18,-166.4 880.18,-135.6 667.7,-135.6"/>
<text text-anchor="start" x="674.7" y="-147.8" font-family="Arial" font-size="14.00">id </text>
<text text-anchor="start" x="689.48" y="-147.8" font-family="Arial" font-size="14.00" fill="#666666">[int]</text>
<polygon fill="none" stroke="black" points="667.7,-104.8 667.7,-135.6 880.18,-135.6 880.18,-104.8 667.7,-104.8"/>
<text text-anchor="start" x="674.7" y="-117" font-family="Arial" font-size="14.00">publisher_name </text>
<text text-anchor="start" x="778.21" y="-117" font-family="Arial" font-size="14.00" fill="#666666">[varchar(128)]</text>
<polygon fill="none" stroke="black" points="667.7,-74 667.7,-104.8 880.18,-104.8 880.18,-74 667.7,-74"/>
<text text-anchor="start" x="674.7" y="-86.2" font-family="Arial" font-size="14.00">created_at </text>
<text text-anchor="start" x="744.74" y="-86.2" font-family="Arial" font-size="14.00" fill="#666666">[datetime]</text>
<polygon fill="none" stroke="black" points="667.7,-43.2 667.7,-74 880.18,-74 880.18,-43.2 667.7,-43.2"/>
<text text-anchor="start" x="674.7" y="-55.4" font-family="Arial" font-size="14.00">updated_at </text>
<text text-anchor="start" x="748.66" y="-55.4" font-family="Arial" font-size="14.00" fill="#666666">[datetime]</text>
</g>
<!-- books&#45;&gt;publishers -->
<g id="edge3" class="edge">
<title>books:publisher_id&#45;&gt;publishers:id</title>
<path fill="none" stroke="black" d="M551.34,-396.17C584.15,-360.21 638.32,-151 666.7,-151"/>
<polygon fill="black" stroke="black" points="551.53,-396.05 540.64,-397.38 546.96,-398.81 543.26,-401.05 543.26,-401.05 543.26,-401.05 546.96,-398.81 545.3,-405.08 551.53,-396.05"/>
<text text-anchor="start" x="549.69" y="-411.4" font-family="Arial" font-size="10.00">FOREIGN KEY (publisher_id) REFERENCES publishers (id)</text>
</g>
</g>
</svg>
